<?xml version="1.0" standalone="no"?>
<!DOCTYPE svg PUBLIC "-//W3C//DTD SVG 20010904//EN"
 "http://www.w3.org/TR/2001/REC-SVG-20010904/DTD/svg10.dtd">
<svg version="1.0" xmlns="http://www.w3.org/2000/svg"
 width="160.000000pt" height="160.000000pt" viewBox="0 0 160.000000 160.000000"
 preserveAspectRatio="xMidYMid meet">
<metadata>
Created by potrace 1.11, written by Peter Selinger 2001-2013
</metadata>
<g transform="translate(0.000000,160.000000) scale(0.100000,-0.100000)"
fill="#000000" stroke="none">
<path d="M1260 1531 l-115 -37 100 -38 c55 -21 131 -51 169 -67 39 -16 72 -27
74 -24 6 5 -15 82 -40 153 -24 65 -29 65 -188 13z"/>
<path d="M795 1387 l-100 -33 125 -49 c69 -26 150 -58 180 -70 l56 -22 102 31
c56 16 102 33 102 36 0 7 -312 129 -345 135 -11 3 -65 -10 -120 -28z"/>
<path d="M348 1247 c-54 -17 -98 -33 -98 -37 0 -4 80 -36 178 -73 l177 -66
105 33 c94 30 102 35 80 44 -14 5 -74 27 -135 50 -60 22 -132 49 -160 59 l-50
20 -97 -30z m99 -52 c21 -14 69 -75 59 -75 -3 0 -56 19 -118 42 -95 36 -109
43 -88 50 34 10 120 0 147 -17z"/>
<path d="M14 1103 c29 -104 41 -133 59 -139 10 -3 20 -4 22 -2 1 1 5 32 7 67
l4 64 -32 13 c-46 19 -66 18 -60 -3z"/>
<path d="M295 980 c71 -72 108 -95 60 -38 l-27 32 24 18 c18 14 19 18 6 18 -9
0 -25 3 -35 6 -13 4 -14 3 -5 -4 11 -7 10 -11 -4 -16 -18 -7 -57 21 -49 34 3
4 -5 10 -17 13 -14 4 1 -17 47 -63z"/>
<path d="M83 903 c-15 -5 -18 -189 -5 -211 6 -9 17 -5 45 15 42 33 45 38 16
40 -31 3 -34 8 -39 87 -4 52 -9 72 -17 69z"/>
<path d="M606 888 c4 -7 3 -8 -4 -4 -14 8 -142 -92 -142 -111 0 -6 -10 -15
-22 -19 -11 -3 -45 -26 -75 -50 l-54 -44 -83 0 -83 0 4 -267 c5 -293 9 -316
66 -357 28 -21 38 -21 596 -21 l568 0 36 28 c24 18 40 40 46 65 5 20 11 156
14 301 l5 265 36 29 c36 29 36 29 36 107 0 52 -4 80 -12 82 -7 3 -77 -49 -157
-114 l-145 -118 -115 0 c-104 1 -114 2 -97 15 11 8 75 61 142 117 l123 103
-109 3 -110 3 -123 -105 c-175 -147 -155 -137 -291 -134 l-117 3 142 118 141
117 -111 0 c-82 0 -110 -3 -105 -12z m764 -398 c0 -7 -202 -10 -585 -10 -383
0 -585 3 -585 10 0 7 202 10 585 10 383 0 585 -3 585 -10z m-3 -162 c-3 -10
-105 -13 -468 -13 -562 0 -701 3 -694 16 4 5 235 9 586 9 460 0 580 -3 576
-12z m-7 -161 c0 -4 -82 -8 -182 -10 l-183 -2 -3 -52 c-2 -29 -7 -53 -13 -53
-5 0 -9 24 -9 53 l0 52 -182 -2 -183 -2 0 -47 c-1 -28 -6 -49 -13 -52 -8 -2
-12 12 -12 50 l0 53 -182 0 c-134 1 -183 4 -186 13 -3 10 121 12 572 10 317
-2 576 -6 576 -11z"/>
<path d="M165 790 c-4 -6 -14 -9 -22 -6 -8 3 -11 1 -8 -4 3 -6 12 -10 20 -10
15 0 30 18 22 26 -3 3 -8 0 -12 -6z"/>
<path d="M410 791 c0 -8 -8 -11 -20 -8 -11 3 -18 1 -14 -4 3 -5 11 -9 19 -9
16 0 30 18 21 27 -3 4 -6 1 -6 -6z"/>
</g>
</svg>
